<svg fill="#161616" role="img" viewBox="0 0 24 24" xmlns="http://www.w3.org/2000/svg"><title>CircleCI</title><path d="M8.5615 12c0-1.8978 1.5407-3.4385 3.4385-3.4385 1.8978 0 3.4385 1.5407 3.4385 3.4385 0 1.8978-1.5407 3.4385-3.4385 3.4385-1.8978 0-3.4385-1.5407-3.4385-3.4385zM12 0C6.2363 0 1.4197 3.9885.1517 9.3633c-.0099.0495-.0198.099-.0198.1485 0 .3366.2772.6138.6138.6138H5.616c.2475 0 .4653-.1485.5643-.3564C7.1577 7.0983 9.3942 5.4783 12 5.4783c3.5979 0 6.5219 2.9241 6.5219 6.5219S15.5979 18.5221 12 18.5221c-2.6058 0-4.8423-1.6203-5.8198-3.9504-.0891-.2178-.3168-.3564-.5643-.3564H.7458c-.3366 0-.6138.2772-.6138.6138 0 .0495.0099.099.0198.1485C1.4197 20.0115 6.2363 24 12 24c6.6308 0 12-5.3692 12-12 0-6.6308-5.3692-12-12-12z"/></svg>