<svg fill="#0D96F6" role="img" viewBox="0 0 24 24" xmlns="http://www.w3.org/2000/svg"><title>App Store</title><path d="M12 0C5.373 0 0 5.373 0 12s5.373 12 12 12 12-5.373 12-12S18.627 0 12 0zM8.81 16.93l-.69 1.196a.953.953 0 0 1-1.65-.952l.508-.881a1.005 1.005 0 0 1 1.137-.475c.582.144.879.625.695 1.112zm7.84-2.49h-1.97v.001H6.444a.953.953 0 1 1 0-1.906h2.762l3.534-6.121-1.104-1.913a.953.953 0 1 1 1.65-.953l.479.83.48-.83a.953.953 0 1 1 1.65.953l-4.609 7.984h3.335c1.083 0 1.692 1.275 1.221 2.07-.014.024-.029.046-.043.069v.005l-.045.072c-.043.064-.085.122-.124.169h-3.78zm5.078-1.067a.953.953 0 0 1-1.305.349c-.027-.016-1.39-.81-3.336-4.187l-.02-.034c-.13-.227-.394-.7-.415-1.27-.02-.567.218-1.06.444-1.394a.953.953 0 0 1 1.575 1.075c-.07.102-.117.21-.115.249.002.052.075.18.142.296l.018.032c1.728 2.997 2.939 3.722 2.94 3.722.452.273.62.875.345 1.327z"/></svg>
