<svg fill="#0866FF" role="img" viewBox="0 3.97 21.48 16" xmlns="http://www.w3.org/2000/svg"><title>Meta</title><path d="M6.915 4.03c-1.968 0-3.683 1.28-4.871 3.113C.704 9.208 0 11.883 0 14.449c0 .706.07 1.369.21 1.973a6.624 6.624 0 0 0 .265.86 5.297 5.297 0 0 0 .371.761c.696 1.159 1.876 1.927 3.234 1.927 1.582 0 2.857-.795 4.227-2.692.16-.221.32-.459.49-.713l.484-.747c.84-1.302 1.547-2.465 1.547-2.465s.74 1.252 1.348 2.31c.275.482.547.948.85 1.39l.353.501c1.359 1.842 2.587 2.416 4.198 2.416 1.305 0 2.43-.792 3.118-1.881.42-.66.674-1.408.737-2.156a8.93 8.93 0 0 0 .052-.83c0-2.567-.704-5.242-2.044-7.306C18.69 5.31 16.975 4.03 15.005 4.03c-1.61 0-3.05.973-4.518 2.787l-1.487 2.105L6.915 4.03zM4.736 6.967c.78 0 1.486.42 2.345 1.547.7.918 1.522 2.092 2.554 3.692l1.024 1.585.073.116-.78 1.196c-.876 1.347-1.62 2.396-2.27 3.054-.793.804-1.531 1.078-2.473 1.078-1.001 0-1.766-.43-2.385-1.123a3.84 3.84 0 0 1-.747-1.187 5.74 5.74 0 0 1-.247-.86 7.32 7.32 0 0 1-.13-1.31c0-1.788.481-3.823 1.357-5.293.876-1.469 1.961-2.495 3.679-2.495zm10.318 0c.918 0 1.778.31 2.616 1.155 1.034 1.043 1.846 2.499 2.395 4.142.367 1.098.49 2.215.49 3.142a4.46 4.46 0 0 1-.064.78c-.072.534-.27 1.054-.521 1.43-.421.63-1.116 1.013-1.913 1.013-1.123 0-1.974-.337-3.041-1.785a14.04 14.04 0 0 1-.292-.413c-.272-.395-.547-.84-.831-1.337-.583-1.018-1.262-2.187-2.054-3.474l-1.024-1.59 1.024-1.589c.811-1.262 1.566-2.31 2.219-3.001.86-.892 1.602-1.474 2.996-1.474Z"/></svg>
