<?xml version="1.0" encoding="UTF-8"?>
<svg width="80px" height="80px" viewBox="0 0 80 80" version="1.1" xmlns="http://www.w3.org/2000/svg" xmlns:xlink="http://www.w3.org/1999/xlink">
    <title>Icon-Architecture/64/Arch_AWS-Bedrock_64</title>
    <desc>AWS Bedrock service icon</desc>
    <defs>
        <linearGradient x1="0%" y1="100%" x2="100%" y2="0%" id="linearGradient-1">
            <stop stop-color="#055F4E" offset="0%"></stop>
            <stop stop-color="#56C0A7" offset="100%"></stop>
        </linearGradient>
    </defs>
    <g id="Icon-Architecture/64/Arch_AWS-Bedrock_64" stroke="none" stroke-width="1" fill="none" fill-rule="evenodd">
        <g id="Icon-Architecture-BG/64/Machine-Learning" fill="url(#linearGradient-1)">
            <rect id="Rectangle" x="0" y="0" width="80" height="80"></rect>
        </g>
        <path d="M40,57.999 C35.589,57.999 32,54.411 32,50 C32,45.589 35.589,42 40,42 C44.411,42 48,45.589 48,50 C48,54.411 44.411,57.999 40,57.999 L40,57.999 Z M40,40 C34.486,40 30,44.486 30,50 C30,55.514 34.486,59.999 40,59.999 C45.514,59.999 50,55.514 50,50 C50,44.486 45.514,40 40,40 L40,40 Z M40,66 C31.178,66 24,58.822 24,50 C24,41.178 31.178,34 40,34 C48.822,34 56,41.178 56,50 C56,58.822 48.822,66 40,66 L40,66 Z M40,32 C30.075,32 22,40.075 22,50 C22,59.925 30.075,68 40,68 C49.925,68 58,59.925 58,50 C58,40.075 49.925,32 40,32 L40,32 Z M40,28 C41.103,28 42,27.103 42,26 C42,24.897 41.103,24 40,24 C38.897,24 38,24.897 38,26 C38,27.103 38.897,28 40,28 L40,28 Z M40,22 C42.206,22 44,23.794 44,26 C44,28.206 42.206,30 40,30 C37.794,30 36,28.206 36,26 C36,23.794 37.794,22 40,22 L40,22 Z M28,18 C28,17.448 28.448,17 29,17 L51,17 C51.552,17 52,17.448 52,18 L52,20 L28,20 L28,18 Z M51,15 L29,15 C27.346,15 26,16.346 26,18 L26,21 C26,21.552 26.448,22 27,22 L34.142,22 C34.587,23.722 35.853,25.115 37.5,25.731 L37.5,46.5 L39.5,46.5 L39.5,25.93 C39.664,25.949 39.829,25.965 40,25.965 C42.013,25.965 43.738,24.74 44.484,23 L53,23 C53.552,23 54,22.552 54,22 L54,18 C54,16.346 52.654,15 51,15 L51,15 Z" id="AWS-Bedrock_Icon_64_Squid" fill="#FFFFFF"></path>
    </g>
</svg>
