<svg xmlns="http://www.w3.org/2000/svg" width="24" height="24" viewBox="0 0 24 24" fill="none"><rect width="24" height="24" rx="4" fill="#1F8DED"/><path d="M16.6 14.9c0 .33-.27.6-.6.6s-.6-.27-.6-.6V9.3c0-.33.27-.6.6-.6s.6.27.6.6v5.6zm-.3 2.4c-.16.14-3.9 3.36-9.9.05a.6.6 0 0 1 .58-1.05c5.2 2.86 8.3.12 8.43 0a.6.6 0 1 1 .79.9l.1.1zM6.8 9.3c0-.33.27-.6.6-.6s.6.27.6.6v5.6c0 .33-.27.6-.6.6s-.6-.27-.6-.6V9.3zm2.4-1.2c0-.33.27-.6.6-.6s.6.27.6.6v7.6c0 .33-.27.6-.6.6s-.6-.27-.6-.6V8.1zm2.4-.3c0-.33.27-.6.6-.6s.6.27.6.6v8.1c0 .33-.27.6-.6.6s-.6-.27-.6-.6V7.8zm2.4.3c0-.33.27-.6.6-.6s.6.27.6.6v7.6c0 .33-.27.6-.6.6s-.6-.27-.6-.6V8.1z" fill="#fff"/></svg>
