<svg fill="#F06A6A" role="img" viewBox="0 0 24 24" xmlns="http://www.w3.org/2000/svg"><title>Asana</title><path d="M18.78 12.653c-1.812 0-3.28 1.47-3.28 3.282 0 1.813 1.468 3.283 3.28 3.283C20.593 19.218 22 17.748 22 15.935c0-1.812-1.407-3.282-3.22-3.282zm-13.56 0C3.407 12.653 2 14.123 2 15.935c0 1.813 1.407 3.283 3.22 3.283 1.813 0 3.282-1.47 3.282-3.283 0-1.812-1.469-3.282-3.282-3.282zm10.063-4.59c0 1.812-1.469 3.282-3.282 3.282-1.813 0-3.282-1.47-3.282-3.282 0-1.813 1.47-3.283 3.282-3.283 1.813 0 3.282 1.47 3.282 3.283z"/></svg>
